<mxfile host="app.diagrams.net" modified="2022-11-02T14:50:58.524Z" agent="5.0 (Windows NT 10.0; Win64; x64) AppleWebKit/537.36 (KHTML, like Gecko) Chrome/107.0.0.0 Safari/537.36" etag="-KM2SYT4leBY85wotx8W" version="20.5.1" type="github">
  <diagram id="m7r8UQgy4FVw2JN49bpj" name="페이지-1">
    <mxGraphModel dx="981" dy="548" grid="1" gridSize="10" guides="1" tooltips="1" connect="1" arrows="1" fold="1" page="1" pageScale="1" pageWidth="827" pageHeight="1169" math="0" shadow="0">
      <root>
        <mxCell id="0" />
        <mxCell id="1" parent="0" />
        <mxCell id="iuztno-7V29zNSssGSf2-1" value="사용자&lt;br&gt;" style="shape=umlActor;verticalLabelPosition=bottom;verticalAlign=top;html=1;outlineConnect=0;" vertex="1" parent="1">
          <mxGeometry x="80" y="420" width="30" height="60" as="geometry" />
        </mxCell>
        <mxCell id="iuztno-7V29zNSssGSf2-2" value="게시판 서비스&lt;br&gt;" style="shape=umlFrame;whiteSpace=wrap;html=1;width=80;height=20;" vertex="1" parent="1">
          <mxGeometry x="180" y="250" width="600" height="600" as="geometry" />
        </mxCell>
        <mxCell id="iuztno-7V29zNSssGSf2-14" style="rounded=0;orthogonalLoop=1;jettySize=auto;html=1;exitX=0;exitY=0.5;exitDx=0;exitDy=0;entryX=1;entryY=0.3333333333333333;entryDx=0;entryDy=0;entryPerimeter=0;endArrow=none;endFill=0;" edge="1" parent="1" source="iuztno-7V29zNSssGSf2-3" target="iuztno-7V29zNSssGSf2-1">
          <mxGeometry relative="1" as="geometry" />
        </mxCell>
        <mxCell id="iuztno-7V29zNSssGSf2-3" value="회원 가입" style="rounded=1;whiteSpace=wrap;html=1;arcSize=40;fontColor=#000000;fillColor=#ffffc0;strokeColor=#ff0000;" vertex="1" parent="1">
          <mxGeometry x="230" y="420" width="120" height="40" as="geometry" />
        </mxCell>
        <mxCell id="iuztno-7V29zNSssGSf2-16" style="edgeStyle=none;rounded=0;orthogonalLoop=1;jettySize=auto;html=1;exitX=0;exitY=0.5;exitDx=0;exitDy=0;endArrow=none;endFill=0;" edge="1" parent="1" source="iuztno-7V29zNSssGSf2-5">
          <mxGeometry relative="1" as="geometry">
            <mxPoint x="110" y="440" as="targetPoint" />
          </mxGeometry>
        </mxCell>
        <mxCell id="iuztno-7V29zNSssGSf2-23" style="edgeStyle=none;rounded=0;orthogonalLoop=1;jettySize=auto;html=1;exitX=1;exitY=0;exitDx=0;exitDy=0;entryX=0.5;entryY=1;entryDx=0;entryDy=0;dashed=1;dashPattern=1 1;endArrow=classic;endFill=1;" edge="1" parent="1" source="iuztno-7V29zNSssGSf2-5" target="iuztno-7V29zNSssGSf2-7">
          <mxGeometry relative="1" as="geometry" />
        </mxCell>
        <mxCell id="iuztno-7V29zNSssGSf2-5" value="게시판 보기&lt;br&gt;" style="rounded=1;whiteSpace=wrap;html=1;arcSize=40;fontColor=#000000;fillColor=#ffffc0;strokeColor=#ff0000;" vertex="1" parent="1">
          <mxGeometry x="230" y="545" width="120" height="40" as="geometry" />
        </mxCell>
        <mxCell id="iuztno-7V29zNSssGSf2-17" style="edgeStyle=none;rounded=0;orthogonalLoop=1;jettySize=auto;html=1;exitX=0;exitY=0.5;exitDx=0;exitDy=0;endArrow=none;endFill=0;" edge="1" parent="1" source="iuztno-7V29zNSssGSf2-6">
          <mxGeometry relative="1" as="geometry">
            <mxPoint x="110" y="440" as="targetPoint" />
          </mxGeometry>
        </mxCell>
        <mxCell id="iuztno-7V29zNSssGSf2-24" style="edgeStyle=none;rounded=0;orthogonalLoop=1;jettySize=auto;html=1;exitX=1;exitY=0;exitDx=0;exitDy=0;dashed=1;dashPattern=1 1;endArrow=classic;endFill=1;" edge="1" parent="1" source="iuztno-7V29zNSssGSf2-6" target="iuztno-7V29zNSssGSf2-7">
          <mxGeometry relative="1" as="geometry" />
        </mxCell>
        <mxCell id="iuztno-7V29zNSssGSf2-6" value="게시글 보기" style="rounded=1;whiteSpace=wrap;html=1;arcSize=40;fontColor=#000000;fillColor=#ffffc0;strokeColor=#ff0000;" vertex="1" parent="1">
          <mxGeometry x="220" y="680" width="120" height="40" as="geometry" />
        </mxCell>
        <mxCell id="iuztno-7V29zNSssGSf2-15" style="edgeStyle=none;rounded=0;orthogonalLoop=1;jettySize=auto;html=1;exitX=0;exitY=0.5;exitDx=0;exitDy=0;entryX=1;entryY=0.3333333333333333;entryDx=0;entryDy=0;entryPerimeter=0;endArrow=none;endFill=0;" edge="1" parent="1" source="iuztno-7V29zNSssGSf2-7" target="iuztno-7V29zNSssGSf2-1">
          <mxGeometry relative="1" as="geometry" />
        </mxCell>
        <mxCell id="iuztno-7V29zNSssGSf2-18" style="edgeStyle=none;rounded=0;orthogonalLoop=1;jettySize=auto;html=1;exitX=1;exitY=0.5;exitDx=0;exitDy=0;entryX=0;entryY=0.5;entryDx=0;entryDy=0;endArrow=classic;endFill=1;dashed=1;dashPattern=1 1;" edge="1" parent="1" source="iuztno-7V29zNSssGSf2-7" target="iuztno-7V29zNSssGSf2-8">
          <mxGeometry relative="1" as="geometry" />
        </mxCell>
        <mxCell id="iuztno-7V29zNSssGSf2-20" value="&amp;lt;&amp;lt;include&amp;gt;&amp;gt;" style="edgeLabel;html=1;align=center;verticalAlign=middle;resizable=0;points=[];" vertex="1" connectable="0" parent="iuztno-7V29zNSssGSf2-18">
          <mxGeometry x="0.1556" y="-1" relative="1" as="geometry">
            <mxPoint as="offset" />
          </mxGeometry>
        </mxCell>
        <mxCell id="iuztno-7V29zNSssGSf2-7" value="회원 로그인" style="rounded=1;whiteSpace=wrap;html=1;arcSize=40;fontColor=#000000;fillColor=#ffffc0;strokeColor=#ff0000;" vertex="1" parent="1">
          <mxGeometry x="370" y="280" width="120" height="40" as="geometry" />
        </mxCell>
        <mxCell id="iuztno-7V29zNSssGSf2-8" value="인증" style="rounded=1;whiteSpace=wrap;html=1;arcSize=40;fontColor=#000000;fillColor=#ffffc0;strokeColor=#ff0000;" vertex="1" parent="1">
          <mxGeometry x="640" y="280" width="120" height="40" as="geometry" />
        </mxCell>
        <mxCell id="iuztno-7V29zNSssGSf2-21" style="edgeStyle=none;rounded=0;orthogonalLoop=1;jettySize=auto;html=1;exitX=0;exitY=0.5;exitDx=0;exitDy=0;entryX=1;entryY=0.5;entryDx=0;entryDy=0;dashed=1;dashPattern=1 1;endArrow=classic;endFill=1;" edge="1" parent="1" source="iuztno-7V29zNSssGSf2-9" target="iuztno-7V29zNSssGSf2-7">
          <mxGeometry relative="1" as="geometry" />
        </mxCell>
        <mxCell id="iuztno-7V29zNSssGSf2-22" value="&amp;lt;&amp;lt;extend&amp;gt;&amp;gt;" style="edgeLabel;html=1;align=center;verticalAlign=middle;resizable=0;points=[];" vertex="1" connectable="0" parent="iuztno-7V29zNSssGSf2-21">
          <mxGeometry x="-0.1749" y="-2" relative="1" as="geometry">
            <mxPoint as="offset" />
          </mxGeometry>
        </mxCell>
        <mxCell id="iuztno-7V29zNSssGSf2-9" value="로그인 실패" style="rounded=1;whiteSpace=wrap;html=1;arcSize=40;fontColor=#000000;fillColor=#ffffc0;strokeColor=#ff0000;" vertex="1" parent="1">
          <mxGeometry x="640" y="380" width="120" height="40" as="geometry" />
        </mxCell>
        <mxCell id="iuztno-7V29zNSssGSf2-26" style="edgeStyle=none;rounded=0;orthogonalLoop=1;jettySize=auto;html=1;exitX=0;exitY=0.5;exitDx=0;exitDy=0;entryX=1;entryY=0.5;entryDx=0;entryDy=0;dashed=1;dashPattern=1 1;endArrow=classic;endFill=1;" edge="1" parent="1" source="iuztno-7V29zNSssGSf2-10" target="iuztno-7V29zNSssGSf2-5">
          <mxGeometry relative="1" as="geometry" />
        </mxCell>
        <mxCell id="iuztno-7V29zNSssGSf2-10" value="게시판 정렬" style="rounded=1;whiteSpace=wrap;html=1;arcSize=40;fontColor=#000000;fillColor=#ffffc0;strokeColor=#ff0000;" vertex="1" parent="1">
          <mxGeometry x="490" y="490" width="120" height="40" as="geometry" />
        </mxCell>
        <mxCell id="iuztno-7V29zNSssGSf2-27" style="edgeStyle=none;rounded=0;orthogonalLoop=1;jettySize=auto;html=1;exitX=0;exitY=0.5;exitDx=0;exitDy=0;entryX=1;entryY=0.5;entryDx=0;entryDy=0;dashed=1;dashPattern=1 1;endArrow=classic;endFill=1;" edge="1" parent="1" source="iuztno-7V29zNSssGSf2-11" target="iuztno-7V29zNSssGSf2-5">
          <mxGeometry relative="1" as="geometry" />
        </mxCell>
        <mxCell id="iuztno-7V29zNSssGSf2-11" value="게시판 검색" style="rounded=1;whiteSpace=wrap;html=1;arcSize=40;fontColor=#000000;fillColor=#ffffc0;strokeColor=#ff0000;" vertex="1" parent="1">
          <mxGeometry x="490" y="590" width="120" height="40" as="geometry" />
        </mxCell>
        <mxCell id="iuztno-7V29zNSssGSf2-29" style="edgeStyle=none;rounded=0;orthogonalLoop=1;jettySize=auto;html=1;exitX=0;exitY=0.5;exitDx=0;exitDy=0;dashed=1;dashPattern=1 1;endArrow=classic;endFill=1;" edge="1" parent="1" source="iuztno-7V29zNSssGSf2-12">
          <mxGeometry relative="1" as="geometry">
            <mxPoint x="340" y="700" as="targetPoint" />
          </mxGeometry>
        </mxCell>
        <mxCell id="iuztno-7V29zNSssGSf2-12" value="댓글 조회, 쓰기, 수정, 삭제" style="rounded=1;whiteSpace=wrap;html=1;arcSize=40;fontColor=#000000;fillColor=#ffffc0;strokeColor=#ff0000;" vertex="1" parent="1">
          <mxGeometry x="490" y="750" width="120" height="40" as="geometry" />
        </mxCell>
        <mxCell id="iuztno-7V29zNSssGSf2-28" style="edgeStyle=none;rounded=0;orthogonalLoop=1;jettySize=auto;html=1;exitX=0;exitY=0.5;exitDx=0;exitDy=0;entryX=1;entryY=0.5;entryDx=0;entryDy=0;dashed=1;dashPattern=1 1;endArrow=classic;endFill=1;" edge="1" parent="1" source="iuztno-7V29zNSssGSf2-13" target="iuztno-7V29zNSssGSf2-6">
          <mxGeometry relative="1" as="geometry" />
        </mxCell>
        <mxCell id="iuztno-7V29zNSssGSf2-13" value="게시글 쓰기, 수정, 삭제" style="rounded=1;whiteSpace=wrap;html=1;arcSize=40;fontColor=#000000;fillColor=#ffffc0;strokeColor=#ff0000;" vertex="1" parent="1">
          <mxGeometry x="490" y="670" width="120" height="40" as="geometry" />
        </mxCell>
        <mxCell id="iuztno-7V29zNSssGSf2-25" style="edgeStyle=none;rounded=0;orthogonalLoop=1;jettySize=auto;html=1;exitX=1;exitY=0.5;exitDx=0;exitDy=0;dashed=1;dashPattern=1 1;endArrow=classic;endFill=1;" edge="1" parent="1" source="iuztno-7V29zNSssGSf2-5" target="iuztno-7V29zNSssGSf2-5">
          <mxGeometry relative="1" as="geometry" />
        </mxCell>
      </root>
    </mxGraphModel>
  </diagram>
</mxfile>
